<?xml version="1.0" encoding="utf-8"?>
<!-- Generator: Adobe Illustrator 24.0.1, SVG Export Plug-In . SVG Version: 6.00 Build 0)  -->
<svg version="1.1" id="Camada_1" xmlns="http://www.w3.org/2000/svg" xmlns:xlink="http://www.w3.org/1999/xlink" x="0px" y="0px"
	 viewBox="0 0 350 350" style="enable-background:new 0 0 350 350;" xml:space="preserve">
<style type="text/css">
	.st0{fill:#FF6A4D;}
	.st1{fill:#D9DAC1;}
	.st2{fill:#77BD0D;}
	.st3{fill:#92D205;}
	.st4{fill:#195467;}
	.st5{fill:#E1E2E1;}
	.st6{fill:#2BB673;}
	.st7{fill:#1C75BC;}
	.st8{fill:#7BCFE4;}
	.st9{fill:#FFDE17;}
	.st10{fill:#3FA4A9;}
</style>
<g>
	<g>
		<g>
			<polygon class="st0" points="249.02,84.1 229.86,84.1 234.01,65.97 244.87,65.97 			"/>
		</g>
		<g>
			<path class="st1" d="M270.63,80.36h-53.39c-10.01,0-18.12,8.11-18.12,18.13v69.91v48.16c0,10.01,8.11,18.12,18.12,18.12h75.61
				c10.01,0,18.12-8.11,18.12-18.12v-45.45c0-1.8-0.27-3.58-0.79-5.3l-22.21-72.62C285.63,85.57,278.6,80.36,270.63,80.36z"/>
		</g>
		<g>
			<path class="st2" d="M109.95,80.36l-52.82,77.16l9.32,77.16h7.25h18.64h94.35c6.87,0,12.43-5.56,12.43-12.43V92.79
				c0-6.86-5.56-12.43-12.43-12.43H109.95z"/>
		</g>
		<g>
			<path class="st3" d="M66.45,234.68l-30.7-42.35c-14.52-20.03-12.28-47.66,5.27-65.1l32.49-32.27
				c9.4-9.34,22.13-14.59,35.39-14.59H126l-27.43,35.42c-24.64,31.82-36.34,71.78-32.75,111.87L66.45,234.68z"/>
		</g>
		<g>
			<path class="st4" d="M153.45,237.27c0,19.73-16,35.73-35.73,35.73c-19.74,0-35.73-16-35.73-35.73c0-19.73,16-35.73,35.73-35.73
				C137.45,201.54,153.45,217.54,153.45,237.27z"/>
		</g>
		<g>
			<path class="st5" d="M117.72,256.43c-10.57,0-19.16-8.6-19.16-19.16c0-10.56,8.59-19.16,19.16-19.16
				c10.56,0,19.16,8.6,19.16,19.16C136.88,247.83,128.28,256.43,117.72,256.43z"/>
		</g>
		<g>
			<path class="st4" d="M289.92,237.27c0,19.73-16,35.73-35.73,35.73c-19.74,0-35.73-16-35.73-35.73c0-19.73,16-35.73,35.73-35.73
				C273.93,201.54,289.92,217.54,289.92,237.27z"/>
		</g>
		<g>
			<path class="st5" d="M254.19,256.43c-10.57,0-19.16-8.6-19.16-19.16c0-10.56,8.59-19.16,19.16-19.16
				c10.56,0,19.16,8.6,19.16,19.16C273.35,247.83,264.76,256.43,254.19,256.43z"/>
		</g>
		<g>
			<path class="st6" d="M80.51,116.61c0,3.25-2.64,5.89-5.89,5.89c-3.25,0-5.89-2.64-5.89-5.89c0-3.25,2.64-5.89,5.89-5.89
				C77.87,110.72,80.51,113.36,80.51,116.61z"/>
			<path class="st7" d="M74.63,124.57c-4.39,0-7.96-3.57-7.96-7.96c0-4.39,3.57-7.96,7.96-7.96s7.96,3.57,7.96,7.96
				C82.58,121,79.01,124.57,74.63,124.57z M74.63,112.8c-2.1,0-3.82,1.71-3.82,3.82c0,2.1,1.71,3.82,3.82,3.82
				c2.1,0,3.81-1.71,3.81-3.82C78.44,114.51,76.73,112.8,74.63,112.8z"/>
		</g>
		<g>
			<path class="st6" d="M98.55,169.16c0,3.25-2.64,5.89-5.89,5.89c-3.25,0-5.89-2.64-5.89-5.89c0-3.25,2.64-5.89,5.89-5.89
				C95.92,163.27,98.55,165.91,98.55,169.16z"/>
			<path class="st7" d="M92.67,177.12c-4.39,0-7.96-3.57-7.96-7.96s3.57-7.96,7.96-7.96s7.96,3.57,7.96,7.96
				S97.05,177.12,92.67,177.12z M92.67,165.35c-2.1,0-3.82,1.71-3.82,3.82c0,2.11,1.71,3.82,3.82,3.82s3.82-1.71,3.82-3.82
				C96.48,167.06,94.77,165.35,92.67,165.35z"/>
		</g>
		<g>
			
				<rect x="79.75" y="116.12" transform="matrix(0.9462 -0.3237 0.3237 0.9462 -41.7992 34.4591)" class="st6" width="5.89" height="53.53"/>
		</g>
		<g>
			<path class="st8" d="M211.54,141.47v-34.18c0-8.01,6.49-14.5,14.5-14.5h38.07c6.37,0,12,4.16,13.87,10.26l10.45,34.18
				c2.85,9.32-4.12,18.74-13.86,18.74h-48.53C218.03,155.97,211.54,149.48,211.54,141.47z"/>
		</g>
		<g>
			<path class="st9" d="M310.04,204.13h-0.09v-25.37h0.09c4.81,0,8.7,3.89,8.7,8.7v7.97C318.74,200.23,314.84,204.13,310.04,204.13z
				"/>
		</g>
	</g>
	<g>
		<rect x="220.75" y="175.57" class="st10" width="32.77" height="12.63"/>
	</g>
</g>
</svg>
