<?xml version="1.0" encoding="utf-8"?>
<!-- Generator: Adobe Illustrator 24.0.1, SVG Export Plug-In . SVG Version: 6.00 Build 0)  -->
<svg version="1.1" id="Camada_1" xmlns="http://www.w3.org/2000/svg" xmlns:xlink="http://www.w3.org/1999/xlink" x="0px" y="0px"
	 viewBox="0 0 600 600" style="enable-background:new 0 0 600 600;" xml:space="preserve">
<style type="text/css">
	.st0{opacity:0.16;fill:#485C82;enable-background:new    ;}
	.st1{fill:#823634;}
	.st2{fill:#DCF2F4;}
	.st3{fill:#516F93;}
	.st4{opacity:0.46;}
	.st5{fill:#FFFFFF;}
	.st6{fill:#D1DFE5;}
	.st7{fill:#DDE7ED;}
	.st8{fill:#F26391;}
	.st9{opacity:0.15;}
	.st10{opacity:0.06;}
	.st11{fill:#D7EBEF;}
	.st12{fill:#F5FAFD;}
	.st13{opacity:0.12;}
	.st14{fill:#829598;}
	.st15{fill:#9EC2CB;}
	.st16{fill:#BDDEE5;}
	.st17{fill:#4BC2D5;}
	.st18{opacity:0.32;}
	.st19{fill:#C8E5ED;}
	.st20{fill:#964442;}
	.st21{fill:#893F3B;}
	.st22{fill:#9E4A4A;}
	.st23{fill:#81623B;}
	.st24{fill:#514776;}
	.st25{fill:#BDC8CC;}
	.st26{fill:#5F71AD;}
	.st27{fill:#EAEAEA;}
	.st28{fill:#363636;}
	.st29{fill:#807BAA;}
	.st30{fill:#F1F1F1;}
	.st31{fill:#67A2C9;}
	.st32{fill:#3E5168;}
	.st33{fill:#0C0D0D;}
	.st34{fill:#A1A3A5;}
	.st35{fill:#564F7E;}
</style>
<g id="object">
	<path class="st0" d="M493.09,488.85c0.14-0.47,0.29-0.95,0.43-1.44c7.48-26.22-5.03-36.08-16.72-41.16
		c-22.84-9.93-45.52-15.46-68.95-17.02c-7.82-0.52-15.64-0.98-23.46-1.42c-32.06-2.98-64.34-6.18-96.38-5.67
		c-15.14,0.25-30.42-3.31-45.61-3.51c-15.22-0.2-30.45,0.69-45.61,3.05c-21.36,3.33-43.21,9.6-64.12,20.14
		c-13.55,6.83-43.45,14.93-40.48,51.67c1.03,12.7,6.05,23.45,12.13,29.71c8.55,8.81,18.55,9.63,28.09,10.55
		c11.49,1.12,22.99,2.05,34.49,2.83c50.48,3.42,101.2,5.36,151.71,3.69c3.63-0.08,7.27-0.2,10.9-0.32
		c22.58-0.79,45.78-2.88,68.57-5.05c21.55-2.05,43.71-3.04,64.84-11.6C474.65,518.56,486.9,508.98,493.09,488.85z"/>
	<g>
		<g>
			<path class="st1" d="M445.16,289.02c-8.04,0-16.1,0-24.15,0c-17.62,0-35.24,0-52.87,0c-17.41,0-34.83,0-52.24,0
				c-5.53,0-11.08,0-16.61,0c-2.11,0-4.36-0.45-6.44,0.21c-6.29,1.97-12.56,5.28-18.8,7.91c-7.59,3.19-15.16,6.38-22.75,9.57
				c-0.46,0.2-0.93,0.39-1.39,0.58c-2.61,1.09-2.08,7.92-0.02,9.29l4.97,66.99l187.98-3.13l2.98-81.86
				C448.31,297.26,448.09,289.02,445.16,289.02z"/>
		</g>
		<g>
			<g>
				<g>
					<path class="st2" d="M442.55,265.18c-0.16-0.15-0.31-0.31-0.47-0.46c1.31-5.73,2.39-11.5,3.14-17.35
						c0.73-5.71,0.84-10.12-2.77-14.88c-7.32-9.63-21.76-16.57-33.56-18.03c-0.45-1.14-0.83-2.22-1.15-3.25
						c-0.27-0.89-0.98-1.54-1.87-1.76l-0.3-0.07l1.01-4.13L397,202.9l-1.04,4.25c-0.78,0.05-1.51,0.46-1.97,1.13l-19.35,28.13
						c-0.17,0.25-0.3,0.52-0.38,0.81l-2.97,11.31l-13.61,55.7c-0.34,1.4,0.51,2.81,1.92,3.16l67.33,16.44
						c1.4,0.34,2.81-0.51,3.16-1.92l13.24-54.22C443.52,266.78,443.23,265.82,442.55,265.18z M436.69,259.16
						c-4.28-4.72-8.89-10.58-13.16-17.74c-3.92-6.54-7.85-13.1-10.91-19c8.22,3.04,16.77,5.49,22.92,12.21
						C440.61,240.2,439.01,250.31,436.69,259.16z"/>
				</g>
				<g>
					<path class="st3" d="M406.51,208.05l-11.36-2.77c-0.41-0.1-0.67-0.51-0.56-0.93l1.46-5.97c0.1-0.41,0.51-0.67,0.93-0.56
						l11.36,2.77c0.41,0.1,0.67,0.51,0.56,0.93l-1.46,5.97C407.33,207.89,406.92,208.15,406.51,208.05z"/>
				</g>
			</g>
			<g>
				
					<rect x="372.1" y="251.6" transform="matrix(0.2373 -0.9714 0.9714 0.2373 26.5736 599.2799)" class="st3" width="45.67" height="62.23"/>
			</g>
			<g class="st4">
				<path class="st5" d="M364.88,304.93l-0.78-0.19c-1.3-0.32-2.11-1.64-1.78-2.94l14.65-59.97c0.32-1.3,1.64-2.11,2.94-1.78
					l0.78,0.19c1.3,0.32,2.11,1.64,1.78,2.94l-14.65,59.97C367.49,304.45,366.18,305.25,364.88,304.93z"/>
			</g>
			<g class="st4">
				<g>
					<path class="st5" d="M394.82,211.35c-4.9,7.84-9.8,15.66-14.7,23.5c-1.25,1.99,1.94,3.75,3.18,1.77
						c4.9-7.84,9.8-15.66,14.7-23.5C399.25,211.13,396.06,209.37,394.82,211.35L394.82,211.35z"/>
				</g>
			</g>
		</g>
		<g>
			<g>
				<path class="st6" d="M283.19,239.69c3.04,5.02,6.29,9.88,9.72,14.54c1.02,1.39,2.11,2.8,3.49,3.6c1.23,0.7,2.58,0.85,3.91,0.93
					c9.19,0.44,25.77-4.09,27.73-16.65c0.63-3.99,0-8.21-0.51-12.33c-0.52-4.12-0.92-8.4,0.11-12.24c0.3-1.14,0.76-2.25,1.57-2.91
					c1.58-1.3,4.01-0.33,5.4,1.5c1.39,1.83,1.99,4.27,2.52,6.61c3.72,16.48,6.04,33.33,11.11,49.4c1.45,4.59,3.12,9.09,4.22,13.78
					c0.18,0.73,0.33,1.49,0.26,2.22c-0.29,2.82-3.47,3.22-5.87,2.82c-10.1-1.68-19.97-5.67-29.97-8.4
					c-4.41-1.2-8.85-2.16-13.31-2.56c-2.59-0.24-5.37-0.36-7.56-2.22c-2.08-1.77-3.31-4.63-5.48-6.29
					c-1.19-0.92-2.04-0.73-3.16-1.95c-1.29-1.4-2.09-3.79-2.79-5.63c-2.66-6.98-4.92-14.16-6.77-21.45
					c-0.45-1.75-2.42-7.16-0.31-8.23C279.55,233.15,282.2,238.05,283.19,239.69z"/>
			</g>
			<g>
				<path class="st7" d="M337.76,238.56c5.99,23.38,17.34,45.21,25.21,68c1.25,3.61,2.46,7.73,1.15,11.07
					c-1.08,2.75-3.6,4.14-5.95,5.3c-13.5,6.7-27.39,12.42-41.57,17.11c-2.69,0.89-5.41,1.75-8.23,1.99
					c-6.55,0.56-11.73-1.44-13.86-9.75c-4.3-16.83-9.02-33.53-14.15-50.09c-4.15-13.4-9.9-26.14-13.43-39.71
					c-0.22-0.86-0.44-1.81-0.13-2.59c0.22-0.56,0.68-0.92,1.12-1.25c2.05-1.56,8.04-6.49,10.66-3.86c1.72,1.73,3.02,7.22,4.03,9.64
					c1.54,3.69,3.1,7.37,4.64,11.06c1.28,3.05,2.74,6.34,5.27,7.93c2.48,1.56,5.37,1.1,8.01,0.6c5.04-0.96,10.12-1.92,14.9-3.87
					c3.75-1.52,7.53-3.93,9.14-8.24c1.49-4.01,0.8-8.85-0.08-13.32c-1.41-7.1-3.24-14.1-5.47-20.95c4.13-1.29,8.26-2.59,12.39-3.89
					C333.52,222.01,335.64,230.29,337.76,238.56z"/>
			</g>
		</g>
		<g>
			<path class="st8" d="M412.73,306c-0.13-0.01-0.26,0.02-0.35,0.1c0.05,0.01,0.1,0.01,0.16,0.02
				C412.59,306.08,412.66,306.05,412.73,306z"/>
		</g>
		<g class="st9">
			<path d="M390.01,296.71c0.52,0.59,1.09,1.16,1.73,1.68c2.21,1.8,4.95,2.86,7.71,3.6c2.64,0.71,5.34,1.18,8.06,1.39
				c2.4,0.19,4.9,0.2,7.04,1.29c0.28,0.15,0.58,0.33,0.69,0.64c0.17,0.45-0.16,0.93-0.47,1.28c-2.18,2.41-5.38,3.73-8.6,4.17
				s-6.5,0.08-9.71-0.43c-4.1-0.65-12.05-1.5-13.98-5.68c-2.63-5.66-2.86-12.58-3.32-18.68c-0.29-3.81-0.59-7.64-0.55-11.47
				c0.05-5.89,0.69-11.5,2.64-17.11c1.06,7.66,2.13,15.32,3.19,22.98C385.2,286.13,386.27,292.42,390.01,296.71z"/>
		</g>
		<g class="st10">
			<path d="M323.49,280.93c-1.1-3.76-2.61-7.42-4.47-10.87c-0.19-0.35-0.42-0.74-0.78-0.91c-0.29-0.14-0.64-0.1-0.96-0.07
				c-3.78,0.39-7.54,1.09-11.2,2.13c-8.41,2.37-17.16,8.77-24.91,12.82c4.45,2.42,10.39,1.06,15.34,2.09
				c6.49,1.34,12.98,2.7,19.48,4.04c2.46,0.51,4.97,1.04,7.14,2.32c0.85,0.51,1.74,1.16,2.74,1.07c1.35-0.11,2.21-1.51,2.7-2.78
				c1.95-5.03,1.97-10.58,1.95-15.98c-0.01-4.18-0.08-8.58-2.19-12.17c-0.71-1.22-1.73-4.94-3.24-4.32
				c-1.82,0.73-1.65,5.36-1.69,6.9c-0.07,2.63,0.16,5.25,0.28,7.88C323.79,275.27,322.9,278.93,323.49,280.93z"/>
		</g>
		<g>
			<g>
				<g>
					<path class="st11" d="M262.86,290.28l24.46,71.64c0.75,2.2,2.96,3.44,4.92,2.77l47.15-16.1c1.96-0.67,2.95-3.01,2.2-5.2
						l-24.46-71.64L262.86,290.28z"/>
				</g>
			</g>
			<g>
				<g>
					<path class="st12" d="M325.4,311.62c-0.11-0.04-0.26-0.05-0.42,0c-0.61,0.21-0.47,1.01,0,1.19c-0.23,1-0.26,2.05-0.46,3.05
						c-0.38,2.02-1.4,3.62-3.56,3.94c-1.25,0.19-2.5-0.1-3.75-0.17c-1.34-0.06-2.28,0.36-3.07,1.21c-0.14-0.21-0.39-0.33-0.69-0.23
						c-0.59,0.2-0.48,0.95-0.05,1.17c-1.26,1.8-2.51,3.46-4.88,3.69c-0.67,0.06-1.32-0.01-1.97-0.08c0.04-0.41-0.3-0.86-0.81-0.69
						c-0.29,0.1-0.42,0.33-0.41,0.57c-0.27-0.01-0.54-0.02-0.81,0c-1.92,0.16-3.16,1.51-4.29,2.91c-0.23,0.28-0.46,0.53-0.71,0.76
						c-0.14-0.09-0.31-0.13-0.52-0.05c-0.38,0.13-0.47,0.48-0.38,0.78c-1.24,0.85-2.69,1.23-4.37,1.28
						c-1.58,0.04-3.31-0.48-4.77,0.36c-0.92,0.53-1.57,1.49-2.62,1.83c-0.92,0.3-1.89,0.11-2.77-0.24c0.43-0.4,0.03-1.28-0.64-1.05
						c-0.27,0.09-0.4,0.3-0.41,0.52c-1.41-0.82-2.93-2.23-4.51-2.92l10.66,31.23c0.46,1.33,2.31,1.93,4.12,1.31l43.55-14.87
						c1.8-0.61,2.92-2.22,2.46-3.55l-11.69-34.25C326.69,309.86,325.9,310.62,325.4,311.62z"/>
				</g>
			</g>
			<g>
				<g>
					<path class="st12" d="M291.51,327.02c-0.76,0.26-0.36,1.45,0.41,1.19C292.68,327.95,292.28,326.76,291.51,327.02z"/>
				</g>
			</g>
			<g>
				<g>
					<path class="st12" d="M293.9,327.7c-0.76,0.26-0.36,1.45,0.41,1.19C295.07,328.63,294.66,327.44,293.9,327.7z"/>
				</g>
			</g>
			<g class="st13">
				<g>
					<path class="st14" d="M341.6,343.39l-24.19-70.84c-2.52,9.67-5.22,19.3-8.06,28.89c-6.23,21.13-13.06,42.08-19.87,63.03
						c0.85,0.44,1.83,0.55,2.75,0.23l47.15-16.1C341.36,347.93,342.35,345.58,341.6,343.39z"/>
				</g>
			</g>
			<g>
				<g>
					<path class="st12" d="M320.34,313.49c-0.76,0.26-0.36,1.45,0.41,1.19C321.52,314.41,321.11,313.23,320.34,313.49z"/>
				</g>
			</g>
			<g>
				<g>
					<path class="st15" d="M320.88,284.05l-53.77,18.36c-0.54,0.19-1.15-0.1-1.33-0.66l-0.03-0.09c-0.19-0.54,0.1-1.15,0.66-1.33
						l53.77-18.36c0.54-0.19,1.15,0.1,1.33,0.66l0.03,0.09C321.72,283.26,321.43,283.86,320.88,284.05z"/>
				</g>
			</g>
			<g>
				<g>
					
						<rect x="263.72" y="283.23" transform="matrix(0.9464 -0.3231 0.3231 0.9464 -76.0075 109.1199)" class="st15" width="53.91" height="0.54"/>
				</g>
			</g>
			<g>
				<g>
					
						<rect x="264.63" y="285.9" transform="matrix(0.9464 -0.3231 0.3231 0.9464 -76.8214 109.5559)" class="st15" width="53.91" height="0.54"/>
				</g>
			</g>
			<g>
				<g>
					
						<rect x="265.54" y="288.57" transform="matrix(0.9464 -0.3231 0.3231 0.9464 -77.6353 109.9919)" class="st15" width="53.91" height="0.54"/>
				</g>
			</g>
			<g>
				<g>
					<path class="st12" d="M285.12,331.23c-0.76,0.26-0.36,1.45,0.41,1.19C286.28,332.16,285.89,330.97,285.12,331.23z"/>
				</g>
			</g>
		</g>
		<g>
			<g>
				
					<rect x="327.21" y="277.36" transform="matrix(0.9972 -0.0743 0.0743 0.9972 -21.495 27.2778)" class="st16" width="57.3" height="50.34"/>
			</g>
			<g>
				
					<rect x="334.73" y="289.41" transform="matrix(0.9972 -0.0743 0.0743 0.9972 -21.7424 27.577)" class="st17" width="50.05" height="33.18"/>
			</g>
			<g class="st18">
				
					<rect x="368.99" y="279.19" transform="matrix(0.9972 -0.0743 0.0743 0.9972 -21.4693 28.5437)" class="st5" width="7.8" height="47.25"/>
			</g>
			<g>
				<g>
					<path class="st19" d="M381.04,254.74c-0.44-5.56-5.06-9.74-10.34-9.33c-2.88,0.23-5.31,1.79-6.9,4.04
						c-2.01-4.61-6.76-7.66-12.06-7.24c-5.87,0.46-10.43,5.02-11.11,10.65c-1.89-2.89-5.11-4.71-8.64-4.43
						c-5.27,0.42-9.2,5.25-8.76,10.82c0.03,0.34,0.11,0.68,0.18,1.01l-0.09,0.01l1.68,23.75l57.82-4.52l-1.68-23.75l-0.09,0.01
						C381.02,255.42,381.06,255.09,381.04,254.74z"/>
				</g>
			</g>
			<g class="st18">
				<path class="st5" d="M378.84,278.69l-7.6,0.56l-1.4-18.8c-0.15-2.01,1.35-3.76,3.37-3.91l0.32-0.02
					c2.01-0.15,3.76,1.35,3.91,3.37L378.84,278.69z"/>
			</g>
		</g>
		<g>
			<g>
				<polygon class="st20" points="413.18,473.99 259.87,473.67 248.92,316.95 413.18,316.95 				"/>
			</g>
			<g>
				<path class="st21" d="M413.18,316.95v157.04l26.5-16.63l6.45-158.92L413.18,316.95z"/>
			</g>
			<g>
				<path class="st20" d="M443.47,289.24l-17.88,9.5c-3.73,2.15-7.47,4.29-11.2,6.44c-0.09,0.05-0.74,0.33-1.3,0.63
					c0,0.1,0.01,0.21,0.01,0.31c0.02,0.02,0.02,0.04,0,0.05c0.16,4.8,0.33,9.61,0.38,14.42c2.69-0.61,5.29-2.68,7.88-4.17
					c8.01-4.61,16.03-9.2,24.03-13.81c0.57-0.32,1.14-0.66,1.71-0.98C451.63,299.03,449.19,287.33,443.47,289.24z"/>
			</g>
			<g>
				<path class="st22" d="M412.41,305.83c-1.12-0.1-2.45,0.11-3.1,0.13c-1.83,0.04-3.66,0.26-5.49,0.28
					c-6.25,0.05-12.51,0.1-18.76,0.16c-17.85,0.15-35.7,0.3-53.54,0.46c-17.98,0.17-35.96,0.33-53.94,0.55
					c-9.36,0.11-18.84-0.58-28.19,0.47c-0.49,0.05-0.94,0.16-1.43,0.31c-1.96,0.63-3.03,5.53-2.52,9.01
					c0.61,4.16,2.58,5.69,4.56,5.05c-2.09,0.67,0.36,0.19,0.99,0.18c1.65-0.05,3.3-0.08,4.95-0.11c5.75-0.1,11.49-0.18,17.25-0.25
					c17.42-0.22,34.85-0.39,52.27-0.54c18.26-0.17,36.53-0.32,54.78-0.48c10.59-0.08,21.16-0.18,31.75-0.25
					c0.97-0.01,1.82-0.98,2.24-2.17c0.3-0.85,0.41-1.8,0.47-2.74c0.19-2.71,0.08-5.46-0.31-8.13c-0.06-0.44-0.15-0.89-0.36-1.22
					C413.72,306.08,413.12,305.89,412.41,305.83z"/>
			</g>
			<g>
				<g>
					<path class="st5" d="M356.19,407.36c-0.04-0.24-0.14-0.5-0.28-0.78c-0.15-0.27-0.56-1.05-1.12-2.07L356.19,407.36z"/>
				</g>
				<g>
					<path class="st5" d="M335.14,379.76l5.27,1.57c1.88,0.56,4.94,1.47,6.82,2.03l5.27,1.57c1.88,0.55,3.76-0.58,4.19-2.53
						l1.22-5.48c0.43-1.95,1.14-5.14,1.56-7.09l1.22-5.48c0.44-1.95-0.79-2.58-2.72-1.43l-3.3,1.99c-1.21-2.12-2.43-4.22-2.9-4.99
						c-1.06-1.75-3.12-3.08-7.14-3.06c-2.99,0.02-10.92,0.06-15.93,0.09l6.66,11.95c0.15,0.16,0.29,0.34,0.42,0.6
						c0.31,0.66,1.52,2.92,2.72,5.15l-3.24,1.95C333.3,377.79,333.26,379.2,335.14,379.76z"/>
				</g>
				<g>
					<path class="st5" d="M316.69,360.95c-1.71,2.66-6.04,9.72-6.04,9.72c-0.97,1.58-0.48,3.66,1.1,4.61l10.63,6.38
						c1.57,0.95,3.65,0.42,4.6-1.19c0,0,5.99-10.08,6.54-11.01c0.57-0.97,1.26-1.12,1.81-0.54l-6.66-11.95
						c-1.74,0.01-3.13,0.02-3.83,0.02C322.08,357.01,318.91,357.5,316.69,360.95z"/>
				</g>
				<g>
					<path class="st5" d="M297.89,405.64c1.2,2.38,4.51,8.49,6.94,12.97l7.53-12.6c0.89-1.55,2.53-4.43,3.91-6.8l3.86,2.19
						c1.96,1.12,3.17,0.44,2.69-1.5l-1.35-5.45c-0.48-1.94-1.26-5.11-1.74-7.03l-1.34-5.45c-0.48-1.94-2.4-3.02-4.25-2.42
						l-5.23,1.71c-1.85,0.6-4.9,1.59-6.76,2.2l-5.23,1.71c-1.87,0.6-1.78,2.01,0.18,3.13l2.84,1.62c-1.45,2.88-3.16,6.26-3.6,7.24
						C295.55,398.91,296.03,401.94,297.89,405.64z"/>
				</g>
				<g>
					<path class="st5" d="M312.37,406.01l-7.53,12.6c1.35,2.5,2.43,4.49,2.72,5.04c0.79,1.54,1.94,4.57,9.12,4.53
						c7.18-0.04,10.45-0.06,10.45-0.06c1.82-0.01,3.31-1.55,3.3-3.42l-0.07-12.62c-0.01-1.88-1.51-3.4-3.35-3.39
						c0,0-12.23,0.07-14.28,0.08c-1.29,0.01-1.45-0.86-1-1.68C311.8,407,312.03,406.6,312.37,406.01z"/>
				</g>
				<g>
					<path class="st5" d="M356.19,407.36l6.23,12.72c2.18-4.11,5.88-11.24,7.39-14.33c2.02-4.13,2.59-7.7,1.67-9.59
						c-0.94-1.89-5.54-11.03-5.54-11.03c-0.84-1.67-2.79-2.22-4.36-1.24l-10.56,6.65c-1.56,0.98-2.11,3.12-1.22,4.75
						c0,0,3.21,5.9,4.99,9.2c0.55,1.02,0.98,1.8,1.12,2.07C356.05,406.86,356.14,407.12,356.19,407.36z"/>
				</g>
				<g>
					<path class="st5" d="M360.88,422.94c0.25-0.43,0.81-1.47,1.54-2.86l-6.23-12.72c0.14,0.74-0.23,1.24-1.13,1.25
						c-0.61,0-3.65,0.02-6.44,0.04l-0.03-3.95c-0.02-2.29-1.19-3.03-2.59-1.66l-3.96,3.89c-1.41,1.39-3.72,3.64-5.13,5.02
						l-3.96,3.89c-1.41,1.39-1.39,3.63,0.04,4.98l4.03,3.81c1.43,1.35,3.77,3.57,5.21,4.93l4.03,3.81c1.44,1.35,2.59,0.59,2.57-1.7
						l-0.03-3.75c1.57-0.01,3.32-0.02,4.93-0.03C358.2,427.88,359.9,424.63,360.88,422.94z"/>
				</g>
			</g>
		</g>
	</g>
	<g>
		<g>
			<g>
				<g>
					<path class="st23" d="M247.75,110.04c-0.19,0.2-0.38,0.41-0.5,0.65c-1.09,2.22-0.34,4.03-0.79,6.46
						c-0.2,1.08-2.81,2.17-1.15,3.74c0.61,0.58,2.33,1.8,3.66,3.02c1.94,1.79,3.3,5.23,3.89,8.17c2.29,11.53,1.38,23.35,0.1,35.02
						c-0.07,0.67-0.16,1.35-0.53,1.92c-0.67,1-1.99,1.25-3.18,1.43c-5.49,0.86-10.9,2.23-16.14,4.1c-4.67,1.66-9.32,3.78-12.82,7.29
						s-5.69,8.66-4.6,13.5c0.81,3.63,3.49,6.77,6.93,8.17c8.53,3.47,18.04-6.05,24.56-10.49c6.18-4.2,12.06-8.83,17.59-13.85
						c0.69-0.61,1.38-1.27,1.76-2.11c0.41-0.9,0.43-1.91,0.43-2.9c0.06-12.65-0.98-25.25-2.29-37.88c-0.36-3.47-2.5-6.32-2.8-9.52
						c-0.2-2.05,1.13-3.8,1.38-5.77c0.24-1.96,0.06-4.59-0.44-6.48c-0.98-3.75-4.7-5.24-7.83-6.86c-0.78-0.41-1.3-0.68-2.13-0.67
						c-1.33,0.01-2.36,0.81-3.4,1.56C248.84,108.99,248.26,109.49,247.75,110.04z"/>
				</g>
			</g>
			<g>
				<g>
					<path class="st24" d="M249.98,198.94c6.47-4.97,12.53-10.63,17.29-16.44c1.21-1.47,2.38-3.04,2.87-4.89
						c0.4-1.52,0.3-3.13,0.2-4.7c-0.6-9.16-1.22-18.31-1.82-27.47c-0.05-0.85,0.13-3.7-0.64-4.21c-0.39-0.26-1.92,0.19-2.41,0.22
						c-0.88,0.05-1.75,0.06-2.63,0.05c-3.47-0.04-7.02-0.43-10.43,0.46c-0.21,0.05-0.43,0.13-0.56,0.29
						c-0.13,0.16-0.15,0.36-0.17,0.55c-0.68,6.7-1.79,13.37-3.33,19.92c-0.35,1.5-0.8,3.16-1.89,4.3c-1.16,1.21-3.24,1.78-4.74,2.51
						c-3.07,1.5-6.29,2.67-9.57,3.66c-6.71,2.03-13.62,3.28-20.46,4.77c-2.67,0.58-6.15,0.88-8.61,2.09
						c-7.41,2.11-15.08,4.34-20.94,9.35c-12.51,10.69-5.75,31.26,11.25,30.99c14.44-0.23,28.87-4.54,41.46-11.52
						C239.87,206.13,245.04,202.73,249.98,198.94z"/>
				</g>
			</g>
		</g>
		<g>
			<g>
				<path class="st25" d="M279.68,67.19c-2.76-5.22-9.23-7.21-14.44-4.45l-33.45,17.69c-5.22,2.76-7.21,9.23-4.45,14.44l15.36,29.04
					c3.13,5.92,8.02,10.31,13.69,12.93c-1.16,5.89-0.41,12.19,2.61,17.88l24.29,45.93c2.13,4.02,7.11,5.55,11.13,3.43l37.8-19.99
					c4.02-2.13,5.55-7.11,3.43-11.13l-24.29-45.93c-3.01-5.69-7.79-9.86-13.32-12.22c1.02-6.16,0.15-12.68-2.98-18.6L279.68,67.19z"
					/>
			</g>
			<g>
				
					<rect x="234.24" y="61.36" transform="matrix(0.884 -0.4675 0.4675 0.884 -2.842 122.8712)" class="st25" width="23.84" height="11.61"/>
			</g>
			<g>
				
					<rect x="227.14" y="49.55" transform="matrix(0.884 -0.4675 0.4675 0.884 1.1902 119.2651)" class="st26" width="27.55" height="15.37"/>
			</g>
			<g>
				
					<rect x="262.82" y="142.32" transform="matrix(0.884 -0.4675 0.4675 0.884 -34.0102 150.7432)" class="st27" width="47.83" height="3.16"/>
			</g>
			<g>
				
					<rect x="270.82" y="157.43" transform="matrix(0.884 -0.4675 0.4675 0.884 -40.1455 156.2338)" class="st27" width="47.83" height="3.16"/>
			</g>
			<g>
				
					<rect x="278.31" y="171.59" transform="matrix(0.884 -0.4675 0.4675 0.884 -45.8983 161.3778)" class="st27" width="47.83" height="3.16"/>
			</g>
		</g>
		<g>
			<g>
				<g>
					<polygon class="st23" points="206.68,456.2 194.3,456.59 193.22,398.45 191.07,359.32 220.13,359.32 216.26,399.42 					"/>
				</g>
				<g>
					<g>
						<g>
							<path class="st28" d="M209.13,454.68c-0.92,1.79-1.13,3.68-1.06,5.94c0.07,2.27,0.14,4.55,0.21,6.83
								c0.04,1.39,0.09,2.82,0.75,4.04c0.54,1.01,1.45,1.78,2.2,2.66c0.75,0.88,1.37,2.01,1.14,3.14c-0.23,1.14-1.29,1.97-2.41,2.27
								c-1.13,0.3-2.31,0.19-3.46,0.07c-1.4-0.15-2.79-0.29-4.19-0.44c-1.25-0.13-2.68-0.38-3.3-1.46c-0.34-0.6-0.34-1.34-0.4-2.04
								c-0.42-5.43-6.89-8.73-6.76-13.65c0.02-0.96,0.35-1.89,0.63-2.8c0.72-2.42,1.1-4.94,1.14-7.46
								c5.22,0.3,11.83-0.31,16.75,1.12C209.83,453.48,209.44,454.08,209.13,454.68z"/>
						</g>
					</g>
				</g>
			</g>
			<g>
				<g>
					<polygon class="st23" points="156.18,453.01 144.05,450.53 157.32,394.83 158.76,356.02 191.54,361.81 179.81,401.06 					"/>
				</g>
				<g>
					<g>
						<g>
							<path class="st28" d="M158.91,452.1c-1.31,1.53-1.95,3.31-2.4,5.53c-0.46,2.23-0.92,4.46-1.37,6.69
								c-0.28,1.35-0.55,2.77-0.2,4.11c0.29,1.12,1,2.06,1.52,3.1c0.52,1.03,0.86,2.27,0.38,3.31c-0.49,1.05-1.71,1.62-2.87,1.66
								c-1.16,0.04-2.29-0.34-3.39-0.73c-1.32-0.46-2.66-0.93-3.98-1.39c-1.19-0.42-2.52-0.98-2.88-2.18
								c-0.2-0.68-0.03-1.39,0.08-2.08c0.84-5.38-4.69-10.09-3.44-14.84c0.24-0.93,0.78-1.75,1.26-2.58
								c1.26-2.19,2.21-4.54,2.82-6.99c5.01,1.49,11.59,2.41,16.04,4.93C159.88,451.08,159.36,451.57,158.91,452.1z"/>
						</g>
					</g>
				</g>
			</g>
			<g>
				<g>
					<g>
						<path class="st24" d="M212.03,182.33c5.95,6.2,7.23,17.54,10.17,25.91c3.48,9.93,6.96,19.86,9.92,29.96
							c1.51,5.15,2.89,10.33,4.04,15.56c0.97,4.37,0.76,8.74,1.32,13.2c2.77,21.95,5.46,43.91,7.16,65.97
							c0.7,9.03,1.23,18.09,1.53,27.16c0.15,4.37,0.19,8.99-1.98,12.79c-7.87-0.54-15.35,0.1-23.22,0.78
							c-21.46,1.63-43.08,2.17-64.53-0.05c-2.48-0.26-27.98-3.16-27.93-4.64c1.33-37.16,0.5-74,5.65-111.02
							c2.75-19.76,4.36-41.14,14.54-58.29c5.01-8.44,14.15-14.92,23.06-19.04c9.89-4.57,21.14-4.09,31.69-2.61
							C207.12,178.53,209.89,180.1,212.03,182.33z"/>
					</g>
				</g>
				<g>
					<g>
						<g>
							<path class="st29" d="M190.76,216.63c2.67,0.88,5.53,1.19,8.35,0.92c0.22-0.01,0.54-16.73,0.58-18.27
								c0.1-3.15-0.34-7.13,2.62-9.15c3.2-2.18,9.18-2.45,8.07-8c-0.5-2.46-2.67-4.3-5.03-5.12c-2.37-0.82-4.93-0.8-7.44-0.77
								c-3.22,0.04-6.44,0.07-9.66,0.21c-6.41,0.26-13.01,0.95-18.68,3.94c-4.56,2.41-4.42,8.01-2.17,12.16
								c0.47,0.88,1.04,1.72,1.81,2.33c1.94,1.57,5.42,1.94,7.82,1.43c2.48-0.53,4.42-2.39,6.63-3.62c1.5-0.83,4.76-1.91,6.09-0.24
								c0.96,1.22,0.32,4.92,0.38,6.33C190.17,200.53,189.79,216.31,190.76,216.63z"/>
						</g>
					</g>
					<g>
						<path class="st30" d="M195.35,199.09c0.11-0.83,0.25-4.86-1.21-4.75c-0.38,0.03-0.68,0.31-0.84,0.66
							c-0.42,0.89-0.39,2.44-0.43,3.4c-0.02,0.52-0.01,1.07,0.24,1.54c0.25,0.47,0.78,0.81,1.29,0.68
							C195.01,200.44,195.27,199.71,195.35,199.09z"/>
					</g>
					<g>
						<path class="st30" d="M195.35,210.66c0.11-0.83,0.25-4.86-1.21-4.75c-0.38,0.03-0.68,0.31-0.84,0.66
							c-0.42,0.89-0.39,2.44-0.43,3.4c-0.02,0.52-0.01,1.07,0.24,1.54c0.25,0.47,0.78,0.81,1.29,0.68
							C195.01,212.01,195.27,211.29,195.35,210.66z"/>
					</g>
				</g>
			</g>
			<g>
				<g>
					<path class="st28" d="M226.75,128.17c1.53,0.38,3.35,4.98,3.75,6.64c0.43,1.76,0.5,3.72,1.46,5.07
						c0.91-1.3,0.99-3.27,0.69-4.98c-0.18-1.02-1.05-1.5-1.34-2.53c-0.34-1.21-0.15-2.67-0.25-3.93c-0.05-0.71-0.19-1.46-0.58-1.99
						c-0.36-0.49-0.89-0.73-1.35-1.03c-1.26-0.79-2.3-2.09-2.94-3.67c-0.21-0.52-0.39-1.08-0.71-1.5c-0.21-0.26-0.47-0.44-0.74-0.56
						c-0.15-0.21-0.3-0.41-0.49-0.58c-1.15-1.1-2.94-1.25-3.58-2.87c-0.36-0.91-0.22-1.97-0.17-2.97
						c0.65-12.19-9.45-11.72-15.62-13.51c-5.89-1.71-9.45-4.71-14.18,2.87c-4.57,7.33-1.97,11.78,0.78,18.71
						c2.21,5.55,1.21,9.47,2.26,15.43c0.82,4.64,3.44,8.57,4.41,13.18c0.85,4.11,0.49,8.46,1.44,12.54
						c0.94,4.07,4.03,8.08,7.28,7.08c-0.48,3.08,1.44,6.5,3.94,7.02c2.5,0.52,5.09-1.96,5.3-5.11c2.11,0.46,4.95,0.39,5.48-2.18
						c0.19-0.89,0-1.83,0.05-2.76c0.25-3.89,4.24-5.05,7.35-5.23c-1.19-4.25,0.1-9.33,3.02-11.81c-1.12-0.5-1.45-2.33-1.25-3.78
						c0.21-1.45,0.76-2.81,0.71-4.29c-0.14-4.15-4.59-6.08-5.74-9.99c-0.3-1.03-0.38-2.16-0.34-3.31
						C225.83,128.19,226.35,128.07,226.75,128.17z"/>
				</g>
				<g>
					<path class="st28" d="M148.97,118.3c0.23,0.99,0.59,2.03,0.25,2.98c-0.61,1.69-2.99,2.02-4.36,3.25
						c-3.27,2.96,0.94,8.3-0.02,12.49c-0.93,4.04-6.59,6.45-6.11,10.61c0.17,1.48,1.14,2.79,1.64,4.21c0.5,1.42,0.34,3.28-1.07,3.91
						c4.3,2.17,6.86,7.1,5.93,11.47c4.2-0.16,9.73,0.58,10.68,4.44c0.23,0.91,0.13,1.89,0.51,2.75c1.13,2.5,4.94,2.27,7.69,1.58
						c0.8,3.12,4.65,5.31,7.92,4.52c3.27-0.79,5.29-4.41,4.17-7.44c4.51,0.65,8.01-3.69,8.63-7.86c0.61-4.18-0.57-8.49-0.07-12.68
						c0.55-4.72,3.44-8.93,3.8-13.65c0.47-6.06-1.51-9.87,0.57-15.66c2.59-7.22,5.37-11.95-1.93-18.78
						c-2.27-2.13-4.99-3.99-8.25-4.22c-1.2-0.08-2.37,0.28-3.54,0.17c-1.91-0.19-3.54-1.62-5.41-0.3c-0.49,0.34-0.84,0.84-1.29,1.23
						c-1.69,1.44-4.35,1.15-6.65,0.78c-0.85-0.14-1.76-0.26-2.55,0.04c-2.23,0.86-1.97,4.45-4.26,5.19
						c-2.76,0.9-4.05,1.02-5.61,3.74C148.39,113.27,148.4,115.87,148.97,118.3z"/>
				</g>
				<g>
					<path class="st23" d="M210.65,140.37c-0.03-0.09-0.06-0.19-0.09-0.28c-1.16-3.63-1.02-7.52-1.67-11.28
						c-1.84-10.79-14.31-13.09-23.68-10.84c-12.76,3.06-16.08,12.52-16.88,24.28c-0.1,1.46-0.6,3.35-2.06,3.43
						c-0.74,0.04-1.4-0.45-2.12-0.57c-1.84-0.32-3.26,1.74-3.51,3.6c-0.31,2.31,0.39,4.77,1.97,6.49c1.57,1.7,3.18,1.51,5.09,2.27
						c3.02,1.21,1.27-0.32,2.94,2.55c2.13,3.69,3.72,7.11,7.42,9.57c3.73,2.49,3.77,3.53,3.99,8.25c0.1,2.43,0.7,5.13,2.75,6.43
						c1.08,0.69,2.4,0.85,3.68,0.94c1.74,0.11,3.49,0.1,5.24-0.03c1.34-0.1,2.76-0.32,3.77-1.22c1.55-1.38,1.54-3.76,1.4-5.84
						c-0.41-5.68-0.32-4.98,3.76-8c5.69-4.21,12.67-13.29,11.45-20.75C213.55,146.2,211.69,143.43,210.65,140.37z"/>
				</g>
				<g>
					<path class="st28" d="M167.18,139.26c-1.42,1.05-3.22,1.81-3.69,3.42c-0.28,0.96,0.01,1.99-0.1,2.98
						c-0.18,1.56-1.48,2.93-3.13,3.28c-3.03,0.65-5.36-1.92-6.68-4.1c-2-3.29-6.01-5.46-10-5.42c-2.14,0.02-4.2,0.64-6.32,0.88
						c-4,0.45-9.62-1.2-11.42-4.84c-0.23-0.47-0.45-0.95-0.45-1.46c0.01-0.5,0.31-1.03,0.82-1.16c0.65-0.16,1.27,0.31,1.87,0.61
						c1.67,0.82,5.46-0.04,6.83-1.09c1.62-1.24,0.9-3.66,0.65-5.64c-0.66-5.06,3.3-10.13,8.62-11.06c1.69-0.29,3.45-0.22,5.13-0.56
						c3.87-0.8,6.67-3.7,9.74-5.96c3.07-2.26,7.4-3.99,10.95-2.17c1.02,0.52,1.89,1.3,2.95,1.73c3.98,1.57,7.46-0.28,11.42,1.67
						c4.05,2,9.19,6.13,8.91,10.3c0.08-1.29-1.91-1.83-3.21-1.42c-1.3,0.42-2.51,1.32-3.9,1.14c-1.82-0.25-3-2.29-4.82-2.45
						c-1.52-0.14-2.71,1.1-3.41,2.34c-0.69,1.24-1.21,2.67-2.44,3.46c-1.68,1.08-4.17,0.64-5.8,1.77c-1.85,1.3-1.72,3.94-1.21,6.11
						c0.51,2.17,1.17,4.61-0.1,6.42C168.09,138.53,167.65,138.9,167.18,139.26z"/>
				</g>
				<g>
					<path class="st28" d="M207.68,123.09c2.9,0.59,4.05,4.18,3.93,7.14c-0.05,1.23-0.17,2.65,0.7,3.52
						c0.46,0.47,1.12,0.68,1.71,0.98c2.57,1.29,3.9,4.63,2.93,7.34c2.4-1.47,3.38-4.87,2.12-7.38c-0.43-0.84-1.05-1.57-1.49-2.41
						c-1.35-2.57-0.77-5.68-0.94-8.58c-0.07-1.18-0.3-2.42-1.07-3.31c-0.71-0.83-1.78-1.25-2.75-1.75
						c-2.55-1.34-4.65-3.55-5.85-6.18c-0.4-0.88-0.72-1.81-1.38-2.52c-1.06-1.13-2.73-1.37-4.27-1.48c-1.35-0.09-2.9-0.06-3.79,0.95
						c-0.42,0.47-0.64,1.1-1.09,1.54c-2.74,2.55-6.02-0.8-5.54,4.8c0.29,3.47,0.54,2.95,3.42,2.93c2.86-0.02,4.5-1.9,7.18,0.35
						c1.27,1.07,0.82,2.75,2.32,3.67C204.82,123.31,206.54,122.81,207.68,123.09z"/>
				</g>
			</g>
		</g>
		<g>
			<g>
				<g>
					<g>
						<path class="st2" d="M296.85,153.94c0.4-2.07-1.43-5.44-1.43-5.44l-9.74-14.19c-1.03-1.5-1.54-3.4-1.48-5.36
							c0.76,0.11,1.48-0.39,1.63-1.15c0.15-0.78-0.36-1.53-1.15-1.68l-0.05-0.01l0.47-2.48l-14.75-2.79l-0.47,2.48l-0.52-0.1
							c-0.78-0.15-1.54,0.36-1.69,1.15c-0.15,0.78,0.36,1.53,1.15,1.68l0.43,0.08c-0.67,1.97-1.93,3.66-3.55,4.69l-14.55,9.29
							c0,0-2.93,2.47-3.32,4.54l-2.01,10.62c0,0,8.3,12.17-3.85,20.89l-12.16,63.49c0,0,18.58,17.69,49.02,9.3l11.93-63.54
							c-7.86-12.06,4.07-20.85,4.07-20.85L296.85,153.94z"/>
					</g>
					<g>
						<path class="st31" d="M284.7,218l6.08-32.05l-11.97-1.28c-9.42-1.37-16.31-2.82-26.1-4.95l-10.94-3.06l-6.08,32.05l-0.16-0.03
							c23.61,13.64,49.33,9.36,49.33,9.36L284.7,218z"/>
					</g>
					<g>
						<path class="st32" d="M285.01,125.5l-15.74-2.98c-1.12-0.21-1.85-1.29-1.65-2.41l1.4-7.37c0.21-1.12,1.29-1.85,2.41-1.65
							l15.74,2.98c1.12,0.21,1.85,1.29,1.65,2.41l-1.4,7.37C287.21,124.97,286.13,125.71,285.01,125.5z"/>
					</g>
					<g class="st9">
						<path class="st33" d="M269.19,126.28l14.95,2.67c0,0,0.02,0.91,0.13,1.55L269.19,126.28z"/>
					</g>
					<g class="st10">
						<g>
							<path class="st33" d="M294.78,164.85l0.03-0.15l-49.02-9.3l-0.03,0.15c0,0,8.3,12.17-3.85,20.89l-0.04,0.22l21.42,5.14
								c1.38,0.33,2.76,0.59,4.15,0.79l23.23,3.32l0.04-0.22C282.84,173.64,294.78,164.85,294.78,164.85z"/>
						</g>
					</g>
				</g>
				<g>
					<polygon class="st34" points="284.83,218.06 284.87,218 284.88,218 					"/>
				</g>
			</g>
		</g>
		<g>
			<g>
				<path class="st23" d="M265.4,188.41c0.27-0.91,0.77-1.99,1.72-1.97c1.17,0.03,1.45,1.62,1.38,2.78
					c3.16-1.56,4.97-5.43,4.16-8.85c2.38-1.33,5.6-0.41,7.37,1.67s2.26,5,1.91,7.71c-0.54,4.07-3.49,7.47-6.32,10.23
					c-2.11,2.06-4.23,4.14-6.19,6.35c-0.54,0.61-1.84,2.98-2.59,3.18c-1.75,0.48-6.24-3.63-7.52-4.69c-0.1-0.08-0.21-0.18-0.25-0.3
					c-0.07-0.26,0.19-0.49,0.41-0.66c1.43-1.04,2.61-2.44,3.26-4.07c0.71-1.78,0.19-3.43,0.51-5.19
					C263.58,192.54,264.79,190.44,265.4,188.41z"/>
			</g>
			<g>
				<path class="st35" d="M241.02,232.5c11.11-6.74,22.2-14,29.7-24.54c0.36-0.51,0.74-1.08,0.7-1.71c-0.03-0.61-0.45-1.14-0.84-1.6
					c-3.58-4.24-7.37-8.32-11.32-12.22c0.34,0.34-17.81,13.23-20.5,14.25c-8.68,3.24-17.76,5.04-27.05,4.9
					c-12.05-0.19-23.72-3.42-35.57-5.23c-8.2-1.26-18.96-3.49-24.01,5.12c-2.63,4.47-2.67,10.13-1.1,15.07
					c4.2,13.21,18.71,20.95,32.56,21.59c10.06,0.47,19.89-2.05,29.35-5.22c8.58-2.88,17.37-3.92,25.18-8.62
					C239.09,233.67,240.06,233.09,241.02,232.5z"/>
			</g>
		</g>
	</g>
</g>
</svg>
